<?xml version="1.0" encoding="utf-8"?>
<!-- Generator: Adobe Illustrator 23.0.4, SVG Export Plug-In . SVG Version: 6.00 Build 0)  -->
<svg version="1.1" id="图层_1" xmlns="http://www.w3.org/2000/svg" xmlns:xlink="http://www.w3.org/1999/xlink" x="0px" y="0px"
	 viewBox="0 0 1920 1080" style="enable-background:new 0 0 1920 1080;" xml:space="preserve">
<style type="text/css">
	.st0{opacity:0.9;}
	.st1{opacity:0.9;fill:#DF494E;}
	.st2{opacity:0.9;fill:none;stroke:#E07F3D;stroke-width:25;stroke-miterlimit:10;}
	.st3{opacity:0.9;fill:#5084CE;}
	.st4{opacity:0.9;fill:none;stroke:#5EBC3A;stroke-width:25;stroke-miterlimit:10;}
</style>
<g id="L" class="st0">
	<path class="st1" d="M153.5,42.5c6.3,4.7,7.6,13.7,2.8,20L122,108.1l45.6,34.4c6.3,4.7,7.6,13.7,2.8,20c-4.7,6.3-13.7,7.6-20,2.8
		l-57.1-43l0,0c-6.3-4.7-7.6-13.7-2.8-20l43-57.1C138.3,39,147.2,37.7,153.5,42.5z"/>
	<path class="st1" d="M603.9,239.7c7.5-2.6,15.6,1.4,18.1,8.9l18.5,54.1l54.1-18.5c7.5-2.6,15.6,1.4,18.1,8.9
		c2.6,7.5-1.4,15.6-8.9,18.1l-67.6,23.2l0,0c-7.5,2.6-15.6-1.4-18.1-8.9L595,257.9C592.5,250.4,596.5,242.3,603.9,239.7z"/>
	<path class="st1" d="M1456.1,202.4c6.7-4.2,15.5-2.3,19.7,4.4l30.7,48.2l48.2-30.7c6.7-4.2,15.5-2.3,19.7,4.4
		c4.2,6.7,2.3,15.5-4.4,19.7l-60.3,38.3l0,0c-6.7,4.2-15.5,2.3-19.7-4.4l-38.3-60.3C1447.5,215.5,1449.4,206.6,1456.1,202.4z"/>
	<path class="st1" d="M1096.9,470.2c7.6,2.1,12,10,9.9,17.6l-15.4,55l55,15.4c7.6,2.1,12,10,9.9,17.6c-2.1,7.6-10,12-17.6,9.9
		l-68.8-19.3l0,0c-7.6-2.1-12-10-9.9-17.6l19.3-68.8C1081.4,472.5,1089.3,468.1,1096.9,470.2z"/>
	<path class="st1" d="M32.1,386c7.7-1.6,15.3,3.5,16.8,11.2l11.2,56l56-11.2c7.7-1.6,15.3,3.5,16.8,11.2c1.6,7.7-3.5,15.3-11.2,16.8
		l-70,14.1l0,0c-7.7,1.6-15.3-3.5-16.8-11.2l-14.1-70C19.4,395.1,24.4,387.6,32.1,386z"/>
	<path class="st1" d="M314.5,825.5c4.6-6.4,13.5-7.9,19.9-3.3l46.5,33.2l33.2-46.5c4.6-6.4,13.5-7.9,19.9-3.3
		c6.4,4.6,7.9,13.5,3.3,19.9l-41.5,58.1l0,0c-4.6,6.4-13.5,7.9-19.9,3.3l-58.1-41.5C311.4,840.8,309.9,831.9,314.5,825.5z"/>
	<path class="st1" d="M1841.5,688.2c-2.6,7.5-10.7,11.4-18.2,8.8l-54-18.7l-18.7,54c-2.6,7.5-10.7,11.4-18.2,8.8
		c-7.5-2.6-11.4-10.7-8.8-18.2l23.3-67.5l0,0c2.6-7.5,10.7-11.4,18.2-8.8l67.5,23.3C1840.1,672.6,1844.1,680.8,1841.5,688.2z"/>
	<path class="st1" d="M1338,939.6c7.6-2.2,15.5,2.1,17.7,9.7l16.1,54.8l54.8-16.1c7.6-2.2,15.5,2.1,17.7,9.7
		c2.2,7.6-2.1,15.5-9.7,17.7l-68.5,20.1l0,0c-7.6,2.2-15.5-2.1-17.7-9.7l-20.1-68.5C1326.1,949.7,1330.4,941.8,1338,939.6z"/>
	<path class="st1" d="M1018.4,956.1c-2.3,7.5-10.4,11.7-17.9,9.4l-54.6-17l-17,54.6c-2.3,7.5-10.4,11.7-17.9,9.4
		c-7.5-2.3-11.7-10.4-9.4-17.9l21.2-68.2l0,0c2.3-7.5,10.4-11.7,17.9-9.4l68.2,21.2C1016.5,940.5,1020.7,948.6,1018.4,956.1z"/>
</g>
<g id="green-O">
	<circle class="st2" cx="295.3" cy="262.9" r="37.5"/>
	<circle class="st2" cx="830.3" cy="118.1" r="37.5"/>
	<circle class="st2" cx="1715.7" cy="103.9" r="37.5"/>
	<circle class="st2" cx="899.2" cy="403.5" r="37.5"/>
	<circle class="st2" cx="532.4" cy="705.6" r="37.5"/>
	<circle class="st2" cx="1550.5" cy="528" r="37.5"/>
	<circle class="st2" cx="1142.8" cy="855.8" r="37.5"/>
</g>
<g id="C">
	<path class="st3" d="M524.4,100.6c0.2,6.9-5.3,12.6-12.2,12.8c-6.9,0.2-12.6-5.3-12.8-12.2c-0.3-13.8-11.7-24.7-25.5-24.4
		c-13.8,0.3-24.7,11.7-24.4,25.5c0.3,13.8,11.7,24.7,25.5,24.4c6.9-0.2,12.6,5.3,12.8,12.2c0.2,6.9-5.3,12.6-12.2,12.8
		c-27.6,0.6-50.5-21.3-51.1-48.9c-0.6-27.6,21.3-50.5,48.9-51.1C500.9,51.1,523.8,73,524.4,100.6L524.4,100.6z"/>
	<path class="st3" d="M1267.4,149.9c-6.8-1.1-11.5-7.5-10.4-14.3s7.5-11.5,14.3-10.4c13.6,2.2,26.4-7.1,28.6-20.7
		c2.2-13.6-7.1-26.5-20.7-28.6c-13.6-2.2-26.5,7.1-28.6,20.7c-1.1,6.8-7.5,11.5-14.3,10.4c-6.8-1.1-11.5-7.5-10.4-14.3
		c4.4-27.3,30-45.8,57.3-41.5c27.3,4.4,45.8,30,41.5,57.3C1320.3,135.7,1294.7,154.2,1267.4,149.9L1267.4,149.9z"/>
	<path class="st3" d="M1325,324.5c6.9,0.5,12.1,6.4,11.6,13.3c-0.5,6.9-6.4,12.1-13.3,11.6c-13.8-0.9-25.7,9.5-26.6,23.3
		c-0.9,13.8,9.5,25.7,23.3,26.6s25.7-9.5,26.6-23.3c0.5-6.9,6.4-12.1,13.3-11.6c6.9,0.5,12.1,6.4,11.6,13.3
		c-1.8,27.5-25.6,48.4-53.2,46.6c-27.6-1.8-48.4-25.6-46.6-53.2S1297.4,322.7,1325,324.5L1325,324.5z"/>
	<path class="st3" d="M656.5,497.1c5.2-4.6,13.1-4.1,17.6,1.1c4.6,5.2,4.1,13.1-1.1,17.6c-10.3,9.1-11.3,24.9-2.2,35.3
		c9.1,10.3,24.9,11.3,35.3,2.2c10.3-9.1,11.3-24.9,2.2-35.3c-4.6-5.2-4.1-13.1,1.1-17.6c5.2-4.6,13.1-4.1,17.6,1.1
		c18.3,20.7,16.3,52.3-4.3,70.6c-20.7,18.3-52.3,16.3-70.6-4.3C633.9,546.9,635.9,515.3,656.5,497.1L656.5,497.1z"/>
	<path class="st3" d="M323.1,545.7c3,6.2,0.4,13.7-5.9,16.7c-6.2,3-13.7,0.4-16.7-5.9c-6-12.4-20.9-17.7-33.4-11.7
		c-12.4,6-17.7,20.9-11.7,33.4c6,12.4,20.9,17.7,33.4,11.7c6.2-3,13.7-0.4,16.7,5.9s0.4,13.7-5.9,16.7
		c-24.9,11.9-54.8,1.5-66.7-23.4c-12-24.9-1.5-54.8,23.4-66.7C281.2,510.3,311.1,520.8,323.1,545.7L323.1,545.7z"/>
	<path class="st3" d="M1378.3,687.2c-2,6.6-8.9,10.4-15.5,8.4s-10.4-8.9-8.4-15.5c3.9-13.2-3.6-27.1-16.8-31.1
		c-13.2-3.9-27.2,3.6-31.1,16.8c-3.9,13.2,3.6,27.2,16.8,31.1c6.6,2,10.4,8.9,8.4,15.5c-2,6.6-8.9,10.4-15.5,8.4
		c-26.5-7.9-41.5-35.7-33.7-62.2c7.9-26.5,35.7-41.6,62.2-33.7C1371.1,632.9,1386.1,660.7,1378.3,687.2L1378.3,687.2z"/>
	<path class="st3" d="M788.5,816c3.7,5.8,2,13.6-3.8,17.3c-5.8,3.7-13.6,2-17.3-3.8c-7.4-11.6-22.9-15.1-34.5-7.7
		c-11.6,7.4-15.1,22.9-7.7,34.5s22.9,15.1,34.5,7.7c5.8-3.7,13.6-2,17.3,3.8c3.7,5.8,2,13.6-3.8,17.3c-23.3,14.8-54.2,8-69-15.3
		c-14.8-23.3-8-54.2,15.3-69S773.7,792.7,788.5,816L788.5,816z"/>
	<path class="st3" d="M89.8,976c-1.5-6.7,2.8-13.4,9.5-14.9s13.4,2.8,14.9,9.5c3,13.5,16.3,22,29.8,19c13.5-3,22-16.3,19-29.8
		s-16.3-22-29.8-19c-6.7,1.5-13.4-2.8-14.9-9.5c-1.5-6.7,2.8-13.4,9.5-14.9c27-5.9,53.6,11.1,59.6,38.1c5.9,27-11.1,53.6-38.1,59.6
		C122.4,1020,95.7,1003,89.8,976L89.8,976z"/>
	<path class="st3" d="M1712.8,912.3c5.5-4.1,13.4-3,17.5,2.5c4.1,5.5,3,13.4-2.5,17.5c-11.1,8.3-13.3,23.9-5.1,35
		c8.3,11.1,23.9,13.3,35,5.1s13.3-23.9,5.1-35c-4.1-5.5-3-13.4,2.5-17.5s13.4-3,17.5,2.5c16.5,22.1,12,53.4-10.1,70
		c-22.1,16.5-53.5,12-70-10.1S1690.7,928.8,1712.8,912.3L1712.8,912.3z"/>
</g>
<g id="orange-O">
	<circle class="st4" cx="1067.8" cy="237.9" r="37.5"/>
	<circle class="st4" cx="1770.1" cy="387.9" r="37.5"/>
	<circle class="st4" cx="448.9" cy="415" r="37.5"/>
	<circle class="st4" cx="936.7" cy="677.5" r="37.5"/>
	<circle class="st4" cx="114.5" cy="754.1" r="37.5"/>
	<circle class="st4" cx="1542.7" cy="829.1" r="37.5"/>
	<circle class="st4" cx="523.9" cy="987.8" r="37.5"/>
</g>
</svg>
